<svg width="227" height="30" viewBox="0 0 227 30" fill="none" xmlns="http://www.w3.org/2000/svg">
<path d="M4.57764e-05 8.28882V19.4596C4.57764e-05 26.054 3.74797 30 15.5086 30C20.0868 30 25.0585 29.2495 28.8064 27.3549H28.9665L29.5967 29.6064H34.9618V8.28882H28.0161V22.0647C26.9124 22.6584 21.9408 24.3962 16.2188 24.3962C9.03642 24.3962 6.94571 22.3815 6.94571 19.106V8.28882H4.57764e-05Z" fill="white"/>
<path d="M40.2135 13.7358H59.6267V13.9359C59.6267 13.9359 57.0225 15.1567 55.8387 15.9072L39.4232 26.5677V29.6064H72.1742V24.1594H51.8541V23.9993C51.8541 23.9993 54.735 22.6584 55.9554 21.8679L72.1742 11.3275V8.28882H40.2135V13.7358Z" fill="white"/>
<path d="M157.303 0H150.357V29.6064H157.303V0Z" fill="white"/>
<path d="M161.684 18.946C161.684 23.012 163.225 25.4203 165.709 27.0781C168.433 28.8559 173.168 30 179.757 30C186.309 30 191.124 28.8559 193.809 27.0781C196.333 25.4203 197.833 23.012 197.833 18.946C197.833 15.04 196.333 12.5517 193.809 10.8539C190.968 8.99933 186.073 7.89526 179.757 7.89526C173.405 7.89526 168.55 8.99933 165.709 10.8539C163.145 12.515 161.684 15.04 161.684 18.946ZM168.67 18.946C168.67 16.8946 169.46 15.7105 170.841 14.9199C172.418 14.0527 175.969 13.499 179.757 13.499C183.548 13.499 187.06 14.0527 188.637 14.9199C190.057 15.7105 190.848 16.8946 190.848 18.946C190.848 21.0007 189.941 22.2248 188.597 22.9753C187.02 23.8426 183.548 24.3963 179.757 24.3963C175.933 24.3963 172.458 23.8426 170.881 22.9753C169.537 22.2248 168.67 21.0007 168.67 18.946Z" fill="white"/>
<path d="M202.685 8.28882V29.6064H209.63V15.2368C209.63 15.2368 213.342 13.619 219.537 13.619C223.008 13.619 226.086 14.2094 226.086 14.2094C226.086 14.2094 226.443 10.3035 226.6 8.36888C225.653 8.13205 223.245 7.77515 220.798 7.77515C215.156 7.77515 211.248 9.03932 209.474 10.0266L209 11.3275H208.844L208.053 8.28882H202.685Z" fill="white"/>
<path fill-rule="evenodd" clip-rule="evenodd" d="M113.702 20.0168C119.664 15.9975 123.585 13.3524 129.514 13.3958C131.591 13.4191 134.402 13.5892 136.303 14.6066C137.843 15.4338 138.473 16.778 138.473 18.6726C138.473 20.2903 138.04 21.6713 136.696 22.6586C135.159 23.8027 132.435 24.3964 127.7 24.3964C121.661 24.3964 118.903 21.9381 116.283 20.1302L115.219 25.2603C117.233 27.5185 121.348 30.0002 127.7 30.0002C134.449 30.0002 138.513 28.7393 141.158 27.0015C143.878 25.2236 145.459 22.5385 145.459 18.4725C145.459 14.2497 143.878 11.5645 140.841 9.94679C137.796 8.31903 132.921 7.84872 129.544 7.78534C122.245 7.60522 117.643 10.7073 110.617 15.4438C109.547 16.1643 108.467 16.8714 107.396 17.5919C101.434 21.6112 97.5129 24.253 91.5842 24.2096C89.5069 24.1863 86.6959 24.0162 84.7953 23.0022C83.2548 22.1716 82.6245 20.8307 82.6245 18.9361C82.6245 17.315 83.058 15.9341 84.4018 14.9468C85.939 13.8027 88.6632 13.209 93.3982 13.209C99.4369 13.209 102.194 15.6673 104.815 17.4751L105.879 12.3451C103.865 10.0869 99.7503 7.60522 93.3982 7.60522C86.6492 7.60522 82.5845 8.8694 79.9403 10.6039C77.2194 12.3817 75.6389 15.0669 75.6389 19.1329C75.6389 23.3557 77.2194 26.0408 80.2571 27.6586C83.3014 29.2897 88.1731 29.7567 91.5542 29.82C98.8533 30.0002 103.455 26.9014 110.481 22.1649C111.551 21.4411 112.631 20.7373 113.702 20.0168Z" fill="white"/>
</svg>
