<svg width="201" height="27" viewBox="0 0 201 27" fill="none" xmlns="http://www.w3.org/2000/svg">
<path d="M0 7.54706V17.4558C0 23.3053 3.32451 26.8054 13.7565 26.8054C17.8175 26.8054 22.2275 26.1397 25.552 24.4592H25.694L26.253 26.4563H31.012V7.54706H24.851V19.7666C23.872 20.2933 19.462 21.8348 14.3865 21.8348C8.01551 21.8348 6.161 20.0477 6.161 17.1422V7.54706H0Z" fill="url(#paint0_linear_34_2919)"/>
<path d="M35.6704 12.3787H52.8904V12.5562C52.8904 12.5562 50.5804 13.6391 49.5304 14.3048L34.9694 23.7609V26.4563H64.0205V21.6247H45.9959V21.4827C45.9959 21.4827 48.5514 20.2933 49.634 19.592L64.0205 10.2425V7.54706H35.6704V12.3787Z" fill="url(#paint1_linear_34_2919)"/>
<path d="M139.532 0.194702H133.371V26.4564H139.532V0.194702Z" fill="url(#paint2_linear_34_2919)"/>
<path d="M143.418 17.0002C143.418 20.6069 144.785 22.7431 146.988 24.2136C149.405 25.7906 153.605 26.8054 159.45 26.8054C165.261 26.8054 169.532 25.7906 171.913 24.2136C174.152 22.7431 175.483 20.6069 175.483 17.0002C175.483 13.5355 174.152 11.3283 171.913 9.82233C169.393 8.17728 165.051 7.19794 159.45 7.19794C153.815 7.19794 149.508 8.17728 146.988 9.82233C144.714 11.2958 143.418 13.5355 143.418 17.0002ZM149.615 17.0002C149.615 15.1806 150.316 14.1302 151.54 13.429C152.939 12.6598 156.09 12.1686 159.45 12.1686C162.812 12.1686 165.927 12.6598 167.326 13.429C168.586 14.1302 169.287 15.1806 169.287 17.0002C169.287 18.8228 168.482 19.9086 167.29 20.5744C165.891 21.3436 162.812 21.8348 159.45 21.8348C156.057 21.8348 152.975 21.3436 151.576 20.5744C150.384 19.9086 149.615 18.8228 149.615 17.0002Z" fill="url(#paint3_linear_34_2919)"/>
<path d="M179.787 7.54701V26.4563H185.948V13.7101C185.948 13.7101 189.24 12.2751 194.736 12.2751C197.815 12.2751 200.545 12.7988 200.545 12.7988C200.545 12.7988 200.861 9.33409 201 7.61802C200.16 7.40795 198.025 7.09137 195.854 7.09137C190.849 7.09137 187.383 8.21273 185.809 9.08851L185.389 10.2424H185.25L184.549 7.54701H179.787Z" fill="url(#paint4_linear_34_2919)"/>
<path fill-rule="evenodd" clip-rule="evenodd" d="M100.856 17.9499C106.145 14.3847 109.623 12.0384 114.882 12.0768C116.725 12.0976 119.218 12.2485 120.904 13.1509C122.271 13.8846 122.83 15.077 122.83 16.7576C122.83 18.1925 122.445 19.4175 121.253 20.2932C119.89 21.3081 117.473 21.8347 113.273 21.8347C107.917 21.8347 105.471 19.6542 103.146 18.0505L102.202 22.6011C103.989 24.6041 107.639 26.8054 113.273 26.8054C119.26 26.8054 122.865 25.687 125.211 24.1455C127.624 22.5685 129.026 20.1867 129.026 16.58C129.026 12.8343 127.624 10.4525 124.93 9.01752C122.229 7.57366 117.905 7.15648 114.909 7.10026C108.434 6.94049 104.353 9.69211 98.1205 13.8935C97.1711 14.5326 96.2128 15.1598 95.2633 15.7989C89.9749 19.3642 86.4966 21.7075 81.2377 21.6691C79.395 21.6483 76.9016 21.4974 75.2157 20.598C73.8492 19.8613 73.2902 18.6719 73.2902 16.9913C73.2902 15.5534 73.6747 14.3284 74.8667 13.4527C76.2302 12.4378 78.6467 11.9112 82.8467 11.9112C88.2032 11.9112 90.6492 14.0917 92.974 15.6954L93.9176 11.1448C92.1311 9.14179 88.4812 6.94049 82.8467 6.94049C76.8602 6.94049 73.2547 8.06185 70.9092 9.60039C68.4957 11.1774 67.0937 13.5592 67.0937 17.1659C67.0937 20.9116 68.4957 23.2934 71.1902 24.7284C73.8906 26.1752 78.2119 26.5894 81.211 26.6456C87.6856 26.8054 91.7673 24.0567 97.9992 19.8553C98.9487 19.2133 99.907 18.589 100.856 17.9499Z" fill="url(#paint5_linear_34_2919)"/>
<defs>
<linearGradient id="paint0_linear_34_2919" x1="0" y1="17.1762" x2="31.012" y2="17.1762" gradientUnits="userSpaceOnUse">
<stop stop-color="#3A4174"/>
<stop offset="1" stop-color="#6D7ADA"/>
</linearGradient>
<linearGradient id="paint1_linear_34_2919" x1="34.9694" y1="17.0017" x2="64.0205" y2="17.0017" gradientUnits="userSpaceOnUse">
<stop stop-color="#3A4174"/>
<stop offset="1" stop-color="#6D7ADA"/>
</linearGradient>
<linearGradient id="paint2_linear_34_2919" x1="133.371" y1="13.3255" x2="139.532" y2="13.3255" gradientUnits="userSpaceOnUse">
<stop stop-color="#3A4174"/>
<stop offset="1" stop-color="#6D7ADA"/>
</linearGradient>
<linearGradient id="paint3_linear_34_2919" x1="143.418" y1="17.0017" x2="175.483" y2="17.0017" gradientUnits="userSpaceOnUse">
<stop stop-color="#3A4174"/>
<stop offset="1" stop-color="#6D7ADA"/>
</linearGradient>
<linearGradient id="paint4_linear_34_2919" x1="179.787" y1="16.7738" x2="201" y2="16.7738" gradientUnits="userSpaceOnUse">
<stop stop-color="#3A4174"/>
<stop offset="1" stop-color="#6D7ADA"/>
</linearGradient>
<linearGradient id="paint5_linear_34_2919" x1="67.0937" y1="16.8729" x2="129.026" y2="16.8729" gradientUnits="userSpaceOnUse">
<stop stop-color="#3A4174"/>
<stop offset="1" stop-color="#6D7ADA"/>
</linearGradient>
</defs>
</svg>
