<svg width="20" height="20" viewBox="0 0 20 20" fill="none" xmlns="http://www.w3.org/2000/svg">
<g clip-path="url(#clip0_289_9811)">
<path d="M14.166 11.6667C14.166 11.8877 14.0782 12.0996 13.9219 12.2559C13.7657 12.4122 13.5537 12.5 13.3327 12.5H6.66602C6.445 12.5 6.23304 12.4122 6.07676 12.2559C5.92048 12.0996 5.83268 11.8877 5.83268 11.6667C5.83268 11.4456 5.92048 11.2337 6.07676 11.0774C6.23304 10.9211 6.445 10.8333 6.66602 10.8333H13.3327C13.5537 10.8333 13.7657 10.9211 13.9219 11.0774C14.0782 11.2337 14.166 11.4456 14.166 11.6667ZM10.8327 14.1667H6.66602C6.445 14.1667 6.23304 14.2545 6.07676 14.4107C5.92048 14.567 5.83268 14.779 5.83268 15C5.83268 15.221 5.92048 15.433 6.07676 15.5892C6.23304 15.7455 6.445 15.8333 6.66602 15.8333H10.8327C11.0537 15.8333 11.2657 15.7455 11.4219 15.5892C11.5782 15.433 11.666 15.221 11.666 15C11.666 14.779 11.5782 14.567 11.4219 14.4107C11.2657 14.2545 11.0537 14.1667 10.8327 14.1667ZM18.3327 8.73749V15.8333C18.3314 16.938 17.8919 17.997 17.1108 18.7781C16.3297 19.5593 15.2707 19.9987 14.166 20H5.83268C4.72802 19.9987 3.66898 19.5593 2.88787 18.7781C2.10675 17.997 1.66734 16.938 1.66602 15.8333V4.16666C1.66734 3.06199 2.10675 2.00295 2.88787 1.22184C3.66898 0.440724 4.72802 0.0013119 5.83268 -1.13103e-05H9.59518C10.3615 -0.00198375 11.1207 0.147978 11.8287 0.441205C12.5367 0.734431 13.1796 1.1651 13.7202 1.70832L16.6235 4.61332C17.167 5.15352 17.598 5.7962 17.8914 6.50413C18.1848 7.21206 18.3348 7.97117 18.3327 8.73749ZM12.5418 2.88666C12.2796 2.63262 11.9851 2.41409 11.666 2.23666V5.83332C11.666 6.05434 11.7538 6.2663 11.9101 6.42258C12.0664 6.57886 12.2783 6.66666 12.4993 6.66666H16.096C15.9185 6.34765 15.6996 6.05344 15.4452 5.79166L12.5418 2.88666ZM16.666 8.73749C16.666 8.59999 16.6393 8.46832 16.6268 8.33332H12.4993C11.8363 8.33332 11.2004 8.06993 10.7316 7.60109C10.2627 7.13225 9.99935 6.49636 9.99935 5.83332V1.70582C9.86435 1.69332 9.73185 1.66666 9.59518 1.66666H5.83268C5.16964 1.66666 4.53376 1.93005 4.06492 2.39889C3.59607 2.86773 3.33268 3.50361 3.33268 4.16666V15.8333C3.33268 16.4964 3.59607 17.1322 4.06492 17.6011C4.53376 18.0699 5.16964 18.3333 5.83268 18.3333H14.166C14.8291 18.3333 15.4649 18.0699 15.9338 17.6011C16.4026 17.1322 16.666 16.4964 16.666 15.8333V8.73749Z" fill="#242848" fill-opacity="0.5"/>
</g>
<defs>
<clipPath id="clip0_289_9811">
<rect width="20" height="20" fill="white"/>
</clipPath>
</defs>
</svg>
