<svg width="20" height="20" viewBox="0 0 20 20" fill="none" xmlns="http://www.w3.org/2000/svg">
<g clip-path="url(#clip0_183_4888)">
<path d="M19.0229 7.64334L15.7904 4.41084C15.6332 4.25904 15.4227 4.17504 15.2042 4.17694C14.9858 4.17884 14.7767 4.26648 14.6222 4.42099C14.4677 4.5755 14.3801 4.78451 14.3782 5.003C14.3763 5.2215 14.4603 5.432 14.6121 5.58917L17.8446 8.82167C17.9406 8.91961 18.0246 9.02872 18.0946 9.14667C18.0821 9.14667 18.0721 9.14 18.0596 9.14L4.98958 9.16667C4.76857 9.16667 4.55661 9.25447 4.40033 9.41075C4.24405 9.56703 4.15625 9.77899 4.15625 10C4.15625 10.221 4.24405 10.433 4.40033 10.5893C4.55661 10.7455 4.76857 10.8333 4.98958 10.8333L18.0546 10.8067C18.0779 10.8067 18.0971 10.795 18.1196 10.7933C18.0457 10.9343 17.9519 11.064 17.8412 11.1783L14.6088 14.4108C14.5292 14.4877 14.4657 14.5797 14.422 14.6813C14.3783 14.783 14.3553 14.8924 14.3544 15.003C14.3534 15.1137 14.3745 15.2234 14.4164 15.3258C14.4583 15.4282 14.5202 15.5213 14.5984 15.5995C14.6767 15.6777 14.7697 15.7396 14.8721 15.7815C14.9745 15.8234 15.0843 15.8445 15.1949 15.8435C15.3056 15.8426 15.4149 15.8196 15.5166 15.7759C15.6183 15.7322 15.7102 15.6688 15.7871 15.5892L19.0196 12.3567C19.6445 11.7316 19.9955 10.8839 19.9955 10C19.9955 9.11612 19.6445 8.26843 19.0196 7.64334H19.0229Z" fill="#242848" fill-opacity="0.5"/>
<path d="M5.83333 18.3333H4.16667C3.50363 18.3333 2.86774 18.0699 2.3989 17.6011C1.93006 17.1323 1.66667 16.4964 1.66667 15.8333V4.16667C1.66667 3.50363 1.93006 2.86774 2.3989 2.3989C2.86774 1.93006 3.50363 1.66667 4.16667 1.66667H5.83333C6.05435 1.66667 6.26631 1.57887 6.42259 1.42259C6.57887 1.26631 6.66667 1.05435 6.66667 0.833333C6.66667 0.61232 6.57887 0.400358 6.42259 0.244078C6.26631 0.0877974 6.05435 0 5.83333 0L4.16667 0C3.062 0.00132321 2.00296 0.440735 1.22185 1.22185C0.440735 2.00296 0.00132321 3.062 0 4.16667L0 15.8333C0.00132321 16.938 0.440735 17.997 1.22185 18.7782C2.00296 19.5593 3.062 19.9987 4.16667 20H5.83333C6.05435 20 6.26631 19.9122 6.42259 19.7559C6.57887 19.5996 6.66667 19.3877 6.66667 19.1667C6.66667 18.9457 6.57887 18.7337 6.42259 18.5774C6.26631 18.4211 6.05435 18.3333 5.83333 18.3333Z" fill="#242848" fill-opacity="0.5"/>
</g>
<defs>
<clipPath id="clip0_183_4888">
<rect width="20" height="20" fill="white"/>
</clipPath>
</defs>
</svg>
