<svg width="20" height="20" viewBox="0 0 20 20" fill="none" xmlns="http://www.w3.org/2000/svg">
<g clip-path="url(#clip0_184_4907)">
<path d="M14.5835 0.76416C13.6451 0.778756 12.7272 1.0407 11.9224 1.52355C11.1177 2.0064 10.4546 2.69305 10.0001 3.51416C9.54566 2.69305 8.88257 2.0064 8.07783 1.52355C7.27308 1.0407 6.35517 0.778756 5.41679 0.76416C3.92091 0.829152 2.51155 1.48354 1.49661 2.58435C0.481678 3.68517 -0.0563308 5.14293 0.000128002 6.63916C0.000128002 12.285 9.13013 18.8058 9.51846 19.0825L10.0001 19.4233L10.4818 19.0825C10.8701 18.8075 20.0001 12.285 20.0001 6.63916C20.0566 5.14293 19.5186 3.68517 18.5036 2.58435C17.4887 1.48354 16.0793 0.829152 14.5835 0.76416ZM10.0001 17.3717C7.28929 15.3467 1.66679 10.3717 1.66679 6.63916C1.60983 5.58476 1.9721 4.5506 2.6746 3.76224C3.37709 2.97388 4.36282 2.49529 5.41679 2.43083C6.47077 2.49529 7.45649 2.97388 8.15899 3.76224C8.86149 4.5506 9.22376 5.58476 9.16679 6.63916H10.8335C10.7765 5.58476 11.1388 4.5506 11.8413 3.76224C12.5438 2.97388 13.5295 2.49529 14.5835 2.43083C15.6374 2.49529 16.6232 2.97388 17.3257 3.76224C18.0282 4.5506 18.3904 5.58476 18.3335 6.63916C18.3335 10.3733 12.711 15.3467 10.0001 17.3717Z" fill="#9799A9"/>
</g>
<defs>
<clipPath id="clip0_184_4907">
<rect width="20" height="20" fill="white"/>
</clipPath>
</defs>
</svg>
