<svg width="20" height="20" viewBox="0 0 20 20" fill="none" xmlns="http://www.w3.org/2000/svg">
<path d="M15.8346 7.02V5.83333C15.8346 4.28624 15.2201 2.80251 14.1261 1.70854C13.0321 0.614582 11.5484 0 10.0013 0C8.45421 0 6.97047 0.614582 5.87651 1.70854C4.78255 2.80251 4.16797 4.28624 4.16797 5.83333V7.02C3.42577 7.34392 2.79405 7.8771 2.35005 8.55434C1.90606 9.23158 1.66903 10.0235 1.66797 10.8333V15.8333C1.66929 16.938 2.1087 17.997 2.88982 18.7782C3.67093 19.5593 4.72997 19.9987 5.83464 20H14.168C15.2726 19.9987 16.3317 19.5593 17.1128 18.7782C17.8939 17.997 18.3333 16.938 18.3346 15.8333V10.8333C18.3336 10.0235 18.0965 9.23158 17.6526 8.55434C17.2086 7.8771 16.5768 7.34392 15.8346 7.02ZM5.83464 5.83333C5.83464 4.72826 6.27362 3.66846 7.05502 2.88705C7.83643 2.10565 8.89623 1.66667 10.0013 1.66667C11.1064 1.66667 12.1662 2.10565 12.9476 2.88705C13.729 3.66846 14.168 4.72826 14.168 5.83333V6.66667H5.83464V5.83333ZM16.668 15.8333C16.668 16.4964 16.4046 17.1323 15.9357 17.6011C15.4669 18.0699 14.831 18.3333 14.168 18.3333H5.83464C5.17159 18.3333 4.53571 18.0699 4.06687 17.6011C3.59803 17.1323 3.33464 16.4964 3.33464 15.8333V10.8333C3.33464 10.1703 3.59803 9.53441 4.06687 9.06557C4.53571 8.59672 5.17159 8.33333 5.83464 8.33333H14.168C14.831 8.33333 15.4669 8.59672 15.9357 9.06557C16.4046 9.53441 16.668 10.1703 16.668 10.8333V15.8333Z" fill="#242848" fill-opacity="0.5"/>
<path d="M10.0013 11.6667C9.78029 11.6667 9.56833 11.7545 9.41205 11.9107C9.25577 12.067 9.16797 12.279 9.16797 12.5V14.1667C9.16797 14.3877 9.25577 14.5996 9.41205 14.7559C9.56833 14.9122 9.78029 15 10.0013 15C10.2223 15 10.4343 14.9122 10.5906 14.7559C10.7468 14.5996 10.8346 14.3877 10.8346 14.1667V12.5C10.8346 12.279 10.7468 12.067 10.5906 11.9107C10.4343 11.7545 10.2223 11.6667 10.0013 11.6667Z" fill="#242848" fill-opacity="0.5"/>
</svg>
