<svg width="20" height="20" viewBox="0 0 20 20" fill="none" xmlns="http://www.w3.org/2000/svg">
<g clip-path="url(#clip0_168_5829)">
<path d="M19.7208 18.8225L19.2858 19.3225C18.8267 19.7825 18.2217 20 17.6192 20C14.5242 20 10 15.7142 10 12.3808C10 11.7783 10.2175 11.1733 10.6775 10.7142L11.1775 10.2792C11.5492 9.9075 12.1525 9.9075 12.5242 10.2792L13.5308 11.3642C13.9025 11.7358 13.9025 12.3392 13.5308 12.7108L12.6767 13.5742C13.4275 15.4442 14.7008 16.6658 16.4267 17.3242L17.29 16.47C17.6617 16.0983 18.265 16.0983 18.6367 16.47L19.7217 17.4767C20.0933 17.8483 20.0933 18.4517 19.7217 18.8233L19.7208 18.8225ZM11.6667 19.1667C11.6667 19.6267 11.2942 20 10.8333 20H3.33333C1.495 20 0 18.505 0 16.6667V4.16667C0 1.86917 1.86917 0 4.16667 0H12.5C14.7975 0 16.6667 1.86917 16.6667 4.16667V10.8333C16.6667 11.2933 16.2942 11.6667 15.8333 11.6667C15.3725 11.6667 15 11.2933 15 10.8333V4.16667C15 2.78833 13.8783 1.66667 12.5 1.66667H5V13.3333H7.5C7.96083 13.3333 8.33333 13.7067 8.33333 14.1667C8.33333 14.6267 7.96083 15 7.5 15H3.33333C2.41417 15 1.66667 15.7475 1.66667 16.6667C1.66667 17.5858 2.41417 18.3333 3.33333 18.3333H10.8333C11.2942 18.3333 11.6667 18.7067 11.6667 19.1667ZM1.66667 4.16667V13.7967C2.15917 13.51 2.72333 13.3333 3.33333 13.3333V1.82C2.36583 2.165 1.66667 3.08167 1.66667 4.16667Z" fill="#242848" fill-opacity="0.5"/>
</g>
<defs>
<clipPath id="clip0_168_5829">
<rect width="20" height="20" fill="white"/>
</clipPath>
</defs>
</svg>
