<svg width="107" height="106" viewBox="0 0 107 106" fill="none" xmlns="http://www.w3.org/2000/svg">
<g clip-path="url(#clip0_132_3484)">
<path d="M53.5 106C24.2749 106 0.5 82.2251 0.5 53C0.5 23.7749 24.2749 0 53.5 0C82.7251 0 106.5 23.7749 106.5 53C106.5 82.2251 82.7251 106 53.5 106ZM53.5 4.41667C26.7129 4.41667 4.91667 26.2129 4.91667 53C4.91667 79.7871 26.7129 101.583 53.5 101.583C80.2871 101.583 102.083 79.7871 102.083 53C102.083 26.2129 80.2871 4.41667 53.5 4.41667ZM35.8333 39.75C33.3953 39.75 31.4167 41.7287 31.4167 44.1667C31.4167 46.6047 33.3953 48.5833 35.8333 48.5833C38.2713 48.5833 40.25 46.6047 40.25 44.1667C40.25 41.7287 38.2713 39.75 35.8333 39.75ZM71.1667 39.75C68.7287 39.75 66.75 41.7287 66.75 44.1667C66.75 46.6047 68.7287 48.5833 71.1667 48.5833C73.6047 48.5833 75.5833 46.6047 75.5833 44.1667C75.5833 41.7287 73.6047 39.75 71.1667 39.75ZM35.8333 79.5C30.9617 79.5 27 75.5382 27 70.6667C27 64.6644 33.5234 57.929 34.2698 57.1826L35.8201 55.6235L37.3836 57.1649C38.1256 57.8981 44.6667 64.5187 44.6667 70.6667C44.6667 75.5382 40.7049 79.5 35.8333 79.5ZM35.8422 62.0277C33.9121 64.342 31.4167 67.9637 31.4167 70.6667C31.4167 73.1047 33.3997 75.0833 35.8333 75.0833C38.2669 75.0833 40.25 73.1047 40.25 70.6667C40.25 67.9151 37.7413 64.2978 35.8422 62.0277ZM53.5 61.8333C52.7933 61.8333 52.1264 61.9526 51.4374 62.0056C52.0513 63.3703 52.5548 64.8057 52.9126 66.303C53.1113 66.2986 53.3012 66.2544 53.5 66.2544C64.6742 66.2544 74.0198 74.4429 74.1126 74.5268L77.0541 71.232C76.6257 70.8477 66.3923 61.8377 53.5 61.8377V61.8333Z" fill="#5761AD" fill-opacity="0.3"/>
</g>
<defs>
<clipPath id="clip0_132_3484">
<rect width="106" height="106" fill="white" transform="translate(0.5)"/>
</clipPath>
</defs>
</svg>
