<svg width="28" height="28" viewBox="0 0 28 28" fill="none" xmlns="http://www.w3.org/2000/svg">
<path d="M1.25129 8.20983L3.37463 9.17583C2.91613 10.1838 2.60579 11.2502 2.45063 12.3468L0.140625 12.0213C0.327292 10.7042 0.700625 9.42083 1.25129 8.20983ZM5.15613 21.6067L3.38746 23.1292C4.25546 24.1372 5.25996 25.0168 6.37646 25.7425L7.64929 23.7872C6.71946 23.1805 5.88063 22.4478 5.15613 21.6067ZM0.140625 15.9787C0.327292 17.2958 0.700625 18.5792 1.25129 19.7902L3.37463 18.8242C2.91613 17.8162 2.60579 16.7498 2.45063 15.6532L0.140625 15.9787ZM3.37579 4.88483L5.14679 6.405C5.87246 5.55917 6.71479 4.823 7.65046 4.21283L6.37646 2.2575C5.25646 2.98783 4.24613 3.871 3.37579 4.88483ZM12.8351 21H15.1685V10.3705L18.5425 13.6675L20.1723 11.9992L15.8346 7.7595C14.8546 6.7795 13.1373 6.78883 12.1783 7.75017L7.83129 11.9992L9.46113 13.6675L12.8351 10.3717V21ZM14.0018 0C12.6415 0 11.2963 0.194833 10.0025 0.578667L10.6663 2.81633C11.7443 2.49667 12.8666 2.33333 14.0006 2.33333C20.4336 2.33333 25.6673 7.567 25.6673 14C25.6673 20.433 20.4336 25.6667 14.0006 25.6667C12.8655 25.6667 11.7443 25.5033 10.6663 25.1837L10.0025 27.4213C11.2963 27.8052 12.6415 28 14.0018 28C21.7216 28 28.0018 21.7198 28.0018 14C28.0018 6.28017 21.7216 0 14.0018 0Z" fill="#5761AE"/>
</svg>
