<svg width="66" height="20" viewBox="0 0 66 20" fill="none" xmlns="http://www.w3.org/2000/svg">
<path fill-rule="evenodd" clip-rule="evenodd" d="M35.979 11.0822C41.615 7.49378 45.3227 5.13356 50.9283 5.17092C52.8916 5.19243 55.5499 5.34414 57.3455 6.25198C58.8008 6.99229 59.3974 8.18996 59.3974 9.88228C59.3974 11.3278 58.9867 12.5617 57.7191 13.4435C56.2638 14.4657 53.6894 14.9943 49.213 14.9943C43.5054 14.9943 40.8964 12.8006 38.4204 11.1852L37.4131 15.7675C39.3177 17.7836 43.207 20 49.213 20C55.5916 20 59.4344 18.8725 61.9344 17.3206C64.5076 15.7346 66 13.3371 66 9.70683C66 5.9339 64.5076 3.53747 61.6351 2.09193C58.7579 0.636197 54.1508 0.218466 50.9558 0.159598C44.0575 -8.67894e-08 39.7068 2.76884 33.0648 6.9991C32.0536 7.64318 31.0318 8.27372 30.021 8.91781C24.385 12.5062 20.6777 14.8664 15.0717 14.8291C13.1084 14.8076 10.4501 14.6559 8.65454 13.748C7.19919 13.0077 6.60263 11.81 6.60263 10.1177C6.60263 8.67218 7.01372 7.4383 8.28204 6.55647C9.73621 5.53429 12.3106 5.00567 16.787 5.00567C22.495 5.00567 25.1036 7.19944 27.5796 8.81481L28.5873 4.23249C26.6826 2.21644 22.793 0 16.787 0C10.4084 0 6.56562 1.12746 4.06561 2.67942C1.49276 4.26535 0 6.6629 0 10.2932C0 14.0661 1.49276 16.4625 4.36527 17.9081C7.2425 19.3638 11.8495 19.7815 15.0442 19.8404C21.9425 20 26.292 17.2312 32.9352 13.0009C33.9464 12.3568 34.9682 11.7263 35.979 11.0822Z" fill="#232323" fill-opacity="0.1"/>
</svg>
