<svg width="31" height="31" viewBox="0 0 31 31" fill="none" xmlns="http://www.w3.org/2000/svg">
<g clip-path="url(#clip0_58_128)">
<path d="M29.7083 14.2083H1.29167C0.578299 14.2083 0 14.7866 0 15.5C0 16.2133 0.578299 16.7916 1.29167 16.7916H29.7083C30.4217 16.7916 31 16.2133 31 15.5C31 14.7866 30.4217 14.2083 29.7083 14.2083Z" fill="#5761AD"/>
<path d="M29.7083 5.16669H1.29167C0.578299 5.16669 0 5.74499 0 6.45835C0 7.17172 0.578299 7.75002 1.29167 7.75002H29.7083C30.4217 7.75002 31 7.17172 31 6.45835C31 5.74499 30.4217 5.16669 29.7083 5.16669Z" fill="#5761AD"/>
<path d="M29.7083 23.25H1.29167C0.578299 23.25 0 23.8283 0 24.5417C0 25.255 0.578299 25.8333 1.29167 25.8333H29.7083C30.4217 25.8333 31 25.255 31 24.5417C31 23.8283 30.4217 23.25 29.7083 23.25Z" fill="#5761AD"/>
</g>
<defs>
<clipPath id="clip0_58_128">
<rect width="31" height="31" fill="white"/>
</clipPath>
</defs>
</svg>
