<svg width="24" height="23" viewBox="0 0 24 23" fill="none" xmlns="http://www.w3.org/2000/svg">
<path d="M20.5678 4.56463C20.9583 4.17411 20.9583 3.54092 20.5678 3.15038L20.3504 2.93297C19.9599 2.54243 19.3267 2.54245 18.9361 2.93301L12.7079 9.16189C12.3174 9.55246 11.6841 9.55246 11.2936 9.16189L5.06536 2.93301C4.67484 2.54245 4.04165 2.54243 3.65111 2.93297L3.4337 3.15038C3.04317 3.54092 3.04318 4.17411 3.43374 4.56463L9.66262 10.7929C10.0532 11.1834 10.0532 11.8166 9.66262 12.2072L3.43374 18.4354C3.04318 18.8259 3.04317 19.4591 3.4337 19.8497L3.65111 20.0671C4.04165 20.4576 4.67484 20.4576 5.06536 20.067L11.2936 13.8382C11.6841 13.4476 12.3174 13.4476 12.7079 13.8382L18.9361 20.067C19.3267 20.4576 19.9599 20.4576 20.3504 20.0671L20.5678 19.8497C20.9583 19.4591 20.9583 18.8259 20.5678 18.4354L14.3389 12.2072C13.9483 11.8166 13.9483 11.1834 14.3389 10.7929L20.5678 4.56463Z" fill="#3A4174"/>
</svg>
