<svg width="11" height="11" viewBox="0 0 11 11" fill="none" xmlns="http://www.w3.org/2000/svg">
<g clip-path="url(#clip0_289_10727)">
<path d="M4.52797 8.30592C4.65566 8.43369 4.80728 8.53505 4.97416 8.60421C5.14104 8.67336 5.31991 8.70896 5.50055 8.70896C5.68119 8.70896 5.86006 8.67336 6.02694 8.60421C6.19382 8.53505 6.34544 8.43369 6.47313 8.30592L7.94484 6.83421C8.02375 6.74694 8.06607 6.63267 8.06306 6.51505C8.06003 6.39744 8.0119 6.28549 7.92862 6.20238C7.84534 6.11928 7.73329 6.07138 7.61566 6.06861C7.49804 6.06584 7.38386 6.10841 7.29676 6.1875L5.95568 7.52904L5.95888 0.458333C5.95888 0.336776 5.9106 0.220197 5.82464 0.134243C5.73869 0.0482886 5.62211 0 5.50055 0C5.37899 0 5.26241 0.0482886 5.17646 0.134243C5.09051 0.220197 5.04222 0.336776 5.04222 0.458333L5.03809 7.52033L3.70434 6.1875C3.61834 6.10156 3.50172 6.0533 3.38014 6.05335C3.25856 6.05339 3.14197 6.10173 3.05603 6.18773C2.97009 6.27373 2.92183 6.39035 2.92188 6.51193C2.92192 6.63352 2.97026 6.7501 3.05626 6.83604L4.52797 8.30592Z" fill="#398417" fill-opacity="0.7"/>
<path d="M10.5417 7.33334C10.4201 7.33334 10.3035 7.38163 10.2176 7.46759C10.1316 7.55354 10.0833 7.67012 10.0833 7.79168V9.62501C10.0833 9.74657 10.035 9.86315 9.94909 9.9491C9.86314 10.0351 9.74656 10.0833 9.625 10.0833H1.375C1.25344 10.0833 1.13686 10.0351 1.05091 9.9491C0.964955 9.86315 0.916667 9.74657 0.916667 9.62501V7.79168C0.916667 7.67012 0.868378 7.55354 0.782424 7.46759C0.69647 7.38163 0.579891 7.33334 0.458333 7.33334C0.336776 7.33334 0.220197 7.38163 0.134243 7.46759C0.0482886 7.55354 0 7.67012 0 7.79168L0 9.62501C0 9.98968 0.144866 10.3394 0.402728 10.5973C0.660591 10.8551 1.01033 11 1.375 11H9.625C9.98967 11 10.3394 10.8551 10.5973 10.5973C10.8551 10.3394 11 9.98968 11 9.62501V7.79168C11 7.67012 10.9517 7.55354 10.8658 7.46759C10.7798 7.38163 10.6632 7.33334 10.5417 7.33334Z" fill="#398417" fill-opacity="0.7"/>
</g>
<defs>
<clipPath id="clip0_289_10727">
<rect width="11" height="11" fill="white"/>
</clipPath>
</defs>
</svg>
