<svg width="26" height="26" viewBox="0 0 26 26" fill="none" xmlns="http://www.w3.org/2000/svg">
<g clip-path="url(#clip0_103_4925)">
<path d="M1.08333 5.14599H4.04733C4.27986 6.00153 4.78744 6.75679 5.49177 7.29525C6.1961 7.83371 7.05805 8.12544 7.94463 8.12544C8.8312 8.12544 9.69315 7.83371 10.3975 7.29525C11.1018 6.75679 11.6094 6.00153 11.8419 5.14599H24.9167C25.204 5.14599 25.4795 5.03185 25.6827 4.82869C25.8859 4.62553 26 4.34998 26 4.06266C26 3.77534 25.8859 3.49979 25.6827 3.29663C25.4795 3.09346 25.204 2.97932 24.9167 2.97932H11.8419C11.6094 2.12378 11.1018 1.36852 10.3975 0.830066C9.69315 0.29161 8.8312 -0.00012207 7.94463 -0.00012207C7.05805 -0.00012207 6.1961 0.29161 5.49177 0.830066C4.78744 1.36852 4.27986 2.12378 4.04733 2.97932H1.08333C0.796016 2.97932 0.520465 3.09346 0.317301 3.29663C0.114137 3.49979 0 3.77534 0 4.06266C0 4.34998 0.114137 4.62553 0.317301 4.82869C0.520465 5.03185 0.796016 5.14599 1.08333 5.14599ZM7.94408 2.16682C8.31904 2.16682 8.68558 2.27801 8.99735 2.48633C9.30912 2.69465 9.55211 2.99074 9.69561 3.33715C9.8391 3.68357 9.87664 4.06476 9.80349 4.43252C9.73034 4.80027 9.54978 5.13808 9.28464 5.40321C9.0195 5.66835 8.6817 5.84891 8.31394 5.92206C7.94619 5.99521 7.565 5.95767 7.21858 5.81418C6.87216 5.67069 6.57607 5.42769 6.36776 5.11593C6.15944 4.80416 6.04825 4.43762 6.04825 4.06266C6.04882 3.56003 6.24875 3.07815 6.60416 2.72273C6.95957 2.36732 7.44145 2.1674 7.94408 2.16682Z" fill="#5761AD"/>
<path d="M24.9167 11.9167H21.9527C21.7205 11.0609 21.2132 10.3054 20.5089 9.76671C19.8046 9.22803 18.9426 8.93616 18.0559 8.93616C17.1692 8.93616 16.3072 9.22803 15.603 9.76671C14.8987 10.3054 14.3913 11.0609 14.1592 11.9167H1.08333C0.796016 11.9167 0.520465 12.0308 0.317301 12.234C0.114137 12.4371 0 12.7127 0 13C0 13.2873 0.114137 13.5629 0.317301 13.766C0.520465 13.9692 0.796016 14.0833 1.08333 14.0833H14.1592C14.3913 14.9391 14.8987 15.6946 15.603 16.2333C16.3072 16.772 17.1692 17.0638 18.0559 17.0638C18.9426 17.0638 19.8046 16.772 20.5089 16.2333C21.2132 15.6946 21.7205 14.9391 21.9527 14.0833H24.9167C25.204 14.0833 25.4795 13.9692 25.6827 13.766C25.8859 13.5629 26 13.2873 26 13C26 12.7127 25.8859 12.4371 25.6827 12.234C25.4795 12.0308 25.204 11.9167 24.9167 11.9167ZM18.0559 14.8958C17.681 14.8958 17.3144 14.7846 17.0026 14.5763C16.6909 14.368 16.4479 14.0719 16.3044 13.7255C16.1609 13.3791 16.1234 12.9979 16.1965 12.6301C16.2697 12.2624 16.4502 11.9246 16.7154 11.6594C16.9805 11.3943 17.3183 11.2137 17.6861 11.1406C18.0538 11.0674 18.435 11.105 18.7814 11.2485C19.1278 11.392 19.4239 11.635 19.6322 11.9467C19.8406 12.2585 19.9517 12.625 19.9517 13C19.9512 13.5026 19.7513 13.9845 19.3958 14.3399C19.0404 14.6953 18.5585 14.8953 18.0559 14.8958Z" fill="#5761AD"/>
<path d="M24.9167 20.8541H11.8419C11.6094 19.9986 11.1018 19.2433 10.3975 18.7049C9.69315 18.1664 8.8312 17.8747 7.94463 17.8747C7.05805 17.8747 6.1961 18.1664 5.49177 18.7049C4.78744 19.2433 4.27986 19.9986 4.04733 20.8541H1.08333C0.796016 20.8541 0.520465 20.9683 0.317301 21.1714C0.114137 21.3746 0 21.6502 0 21.9375C0 22.2248 0.114137 22.5003 0.317301 22.7035C0.520465 22.9067 0.796016 23.0208 1.08333 23.0208H4.04733C4.27986 23.8764 4.78744 24.6316 5.49177 25.1701C6.1961 25.7085 7.05805 26.0003 7.94463 26.0003C8.8312 26.0003 9.69315 25.7085 10.3975 25.1701C11.1018 24.6316 11.6094 23.8764 11.8419 23.0208H24.9167C25.204 23.0208 25.4795 22.9067 25.6827 22.7035C25.8859 22.5003 26 22.2248 26 21.9375C26 21.6502 25.8859 21.3746 25.6827 21.1714C25.4795 20.9683 25.204 20.8541 24.9167 20.8541ZM7.94408 23.8333C7.56912 23.8333 7.20258 23.7221 6.89082 23.5138C6.57905 23.3055 6.33605 23.0094 6.19256 22.663C6.04907 22.3166 6.01153 21.9354 6.08468 21.5676C6.15783 21.1999 6.33839 20.8621 6.60353 20.5969C6.86866 20.3318 7.20647 20.1512 7.57422 20.0781C7.94198 20.0049 8.32317 20.0425 8.66959 20.186C9.01601 20.3294 9.31209 20.5724 9.52041 20.8842C9.72873 21.196 9.83992 21.5625 9.83992 21.9375C9.83906 22.44 9.63904 22.9217 9.28369 23.2771C8.92834 23.6324 8.44663 23.8324 7.94408 23.8333Z" fill="#5761AD"/>
</g>
<defs>
<clipPath id="clip0_103_4925">
<rect width="26" height="26" fill="white"/>
</clipPath>
</defs>
</svg>
