<svg width="8" height="12" viewBox="0 0 8 12" fill="none" xmlns="http://www.w3.org/2000/svg">
<path d="M4.02558 12H2.21217L3.15494 8H1.20671C1.01843 7.99992 0.832777 7.95312 0.664587 7.86335C0.496397 7.77359 0.350334 7.64334 0.23807 7.48301C0.125805 7.32268 0.0504523 7.13672 0.0180317 6.93999C-0.0143889 6.74326 -0.00297802 6.54122 0.0513525 6.35L1.86193 0H6.32452L4.91037 4H6.80674C7.0225 4.00015 7.2342 4.0623 7.41932 4.17986C7.60444 4.29742 7.75607 4.46599 7.85809 4.66764C7.96011 4.8693 8.00871 5.09652 7.99872 5.32513C7.98873 5.55374 7.92053 5.77521 7.80136 5.966L4.02558 12Z" fill="white" fill-opacity="0.8"/>
</svg>
