<svg width="21" height="19" viewBox="0 0 21 19" fill="none" xmlns="http://www.w3.org/2000/svg">
<path d="M9.84856 3.17188L10.5 4.31377L11.1514 3.17188C11.562 2.4523 12.1626 1.84774 12.8949 1.42145C13.6213 0.998616 14.4507 0.766732 15.3005 0.750283C16.6716 0.81356 17.9575 1.39784 18.8814 2.3701C19.8095 3.34666 20.2976 4.63507 20.2463 5.95317L20.2458 5.96773V5.98231C20.2458 7.21934 19.7259 8.57054 18.8576 9.94816C17.9946 11.3174 16.8272 12.6501 15.6267 13.8346C13.2263 16.2031 10.7705 17.9045 10.5808 18.0348L10.5 18.0903L10.4209 18.036C10.4206 18.0358 10.4204 18.0356 10.4201 18.0354C10.2227 17.899 7.77038 16.199 5.37324 13.8339C4.17273 12.6495 3.00533 11.317 2.14236 9.9479C1.27409 8.57041 0.754234 7.21933 0.754234 5.98231V5.96773L0.753668 5.95317C0.702401 4.63507 1.19051 3.34666 2.11857 2.3701C3.04254 1.39784 4.32843 0.81356 5.69954 0.750283C6.54931 0.766732 7.3787 0.998616 8.10509 1.42145C8.83743 1.84774 9.43804 2.4523 9.84856 3.17188Z" fill="#5761AD" stroke="#5761AD" stroke-width="1.5"/>
</svg>
