<svg width="23" height="22" viewBox="0 0 23 22" fill="none" xmlns="http://www.w3.org/2000/svg">
<path d="M16.6614 0.881836C15.6048 0.897779 14.5714 1.18391 13.6653 1.71134C12.7592 2.23876 12.0126 2.98881 11.5009 3.88572C10.9893 2.98881 10.2427 2.23876 9.3366 1.71134C8.43053 1.18391 7.39705 0.897779 6.34052 0.881836C4.65629 0.952828 3.06948 1.66763 1.92675 2.87007C0.784028 4.07252 0.178279 5.66486 0.241847 7.29923C0.241847 13.4663 10.5214 20.5891 10.9586 20.8914L11.5009 21.2637L12.0433 20.8914C12.4805 20.591 22.76 13.4663 22.76 7.29923C22.8236 5.66486 22.2179 4.07252 21.0751 2.87007C19.9324 1.66763 18.3456 0.952828 16.6614 0.881836ZM11.5009 19.0226C8.44879 16.8106 2.11836 11.3763 2.11836 7.29923C2.05422 6.14748 2.46211 5.01785 3.25306 4.15671C4.04401 3.29557 5.15385 2.77278 6.34052 2.70237C7.5272 2.77278 8.63704 3.29557 9.42799 4.15671C10.2189 5.01785 10.6268 6.14748 10.5627 7.29923H12.4392C12.3751 6.14748 12.7829 5.01785 13.5739 4.15671C14.3648 3.29557 15.4747 2.77278 16.6614 2.70237C17.848 2.77278 18.9579 3.29557 19.7488 4.15671C20.5398 5.01785 20.9477 6.14748 20.8835 7.29923C20.8835 11.3781 14.5531 16.8106 11.5009 19.0226Z" fill="#5760AC"/>
</svg>
