<svg width="22" height="21" viewBox="0 0 22 21" fill="none" xmlns="http://www.w3.org/2000/svg">
<path d="M16.0415 0.340576C15.0093 0.356632 13.9996 0.644775 13.1143 1.17591C12.2291 1.70704 11.4997 2.46236 10.9998 3.36558C10.4999 2.46236 9.77049 1.70704 8.88527 1.17591C8.00004 0.644775 6.99035 0.356632 5.95813 0.340576C4.31266 0.412068 2.76236 1.13189 1.64593 2.34279C0.529504 3.55369 -0.0623057 5.15722 -0.000200994 6.80308C-0.000200994 13.0135 10.0428 20.1864 10.47 20.4907L10.9998 20.8657L11.5296 20.4907C11.9568 20.1882 21.9998 13.0135 21.9998 6.80308C22.0619 5.15722 21.4701 3.55369 20.3537 2.34279C19.2372 1.13189 17.6869 0.412068 16.0415 0.340576ZM10.9998 18.6088C8.01788 16.3813 1.83313 10.9088 1.83313 6.80308C1.77047 5.64323 2.16897 4.50566 2.94172 3.63847C3.71446 2.77127 4.79876 2.24481 5.95813 2.17391C7.1175 2.24481 8.2018 2.77127 8.97455 3.63847C9.7473 4.50566 10.1458 5.64323 10.0831 6.80308H11.9165C11.8538 5.64323 12.2523 4.50566 13.025 3.63847C13.7978 2.77127 14.8821 2.24481 16.0415 2.17391C17.2008 2.24481 18.2851 2.77127 19.0579 3.63847C19.8306 4.50566 20.2291 5.64323 20.1665 6.80308C20.1665 10.9107 13.9817 16.3813 10.9998 18.6088Z" fill="#9799A9"/>
</svg>
