<svg width="105" height="105" viewBox="0 0 105 105" fill="none" xmlns="http://www.w3.org/2000/svg">
<path d="M102.287 17.5H28.3937L27.2563 9.45C26.5125 4.06875 21.875 0 16.4062 0H8.70625V4.375H16.4062C19.6875 4.375 22.4437 6.825 22.925 10.0188L31.7625 73.675C32.5063 79.0563 37.1437 83.125 42.6125 83.125H91.875V78.75H42.6125C39.3312 78.75 36.575 76.3 36.0938 73.1062L35.0438 65.625H92.6188L102.244 17.5H102.287ZM34.475 61.25L29.0063 21.875H96.95L89.075 61.25H34.475ZM39.375 87.5C34.5625 87.5 30.625 91.4375 30.625 96.25C30.625 101.062 34.5625 105 39.375 105C44.1875 105 48.125 101.062 48.125 96.25C48.125 91.4375 44.1875 87.5 39.375 87.5ZM39.375 100.625C36.9688 100.625 35 98.6562 35 96.25C35 93.8438 36.9688 91.875 39.375 91.875C41.7812 91.875 43.75 93.8438 43.75 96.25C43.75 98.6562 41.7812 100.625 39.375 100.625ZM78.75 87.5C73.9375 87.5 70 91.4375 70 96.25C70 101.062 73.9375 105 78.75 105C83.5625 105 87.5 101.062 87.5 96.25C87.5 91.4375 83.5625 87.5 78.75 87.5ZM78.75 100.625C76.3438 100.625 74.375 98.6562 74.375 96.25C74.375 93.8438 76.3438 91.875 78.75 91.875C81.1562 91.875 83.125 93.8438 83.125 96.25C83.125 98.6562 81.1562 100.625 78.75 100.625ZM16.3625 26.25H0V21.875H15.75L16.3625 26.25ZM18.8125 43.75H0V39.375H18.2L18.8125 43.75ZM20.65 56.875L21.2625 61.25H0V56.875H20.6063H20.65Z" fill="#5761AD" fill-opacity="0.3"/>
</svg>
