<svg width="21" height="21" viewBox="0 0 21 21" fill="none" xmlns="http://www.w3.org/2000/svg">
<g clip-path="url(#clip0_6_27)">
<path d="M15.6497 11.2067L20.8705 16.4275L18.228 19.07C17.7675 19.5286 17.2204 19.8912 16.6186 20.1367C16.0168 20.3822 15.3722 20.5057 14.7222 20.5C8.68221 20.5 0.972208 12.79 0.972208 6.75C0.966922 6.09999 1.09058 5.45537 1.33604 4.85346C1.5815 4.25155 1.94388 3.70429 2.40221 3.24333L5.04471 0.601667L10.2655 5.8225L6.82804 9.26C7.84998 11.6886 9.77935 13.6224 12.2055 14.65L15.6497 11.2067ZM19.3055 8.83333H20.9722C20.9698 6.62394 20.091 4.50573 18.5287 2.94346C16.9665 1.38118 14.8483 0.502426 12.6389 0.5V2.16667C14.4064 2.16865 16.1009 2.87167 17.3507 4.12148C18.6005 5.37129 19.3036 7.06583 19.3055 8.83333ZM15.9722 8.83333H17.6389C17.6376 7.50766 17.1103 6.23666 16.1729 5.29926C15.2356 4.36187 13.9646 3.83466 12.6389 3.83333V5.5C13.5229 5.5 14.3708 5.85119 14.9959 6.47631C15.621 7.10143 15.9722 7.94928 15.9722 8.83333Z" fill="#A2A2A2"/>
</g>
<defs>
<clipPath id="clip0_6_27">
<rect width="20" height="20" fill="white" transform="translate(0.972046 0.5)"/>
</clipPath>
</defs>
</svg>
