<svg width="23" height="23" viewBox="0 0 23 23" fill="none" xmlns="http://www.w3.org/2000/svg">
<g clip-path="url(#clip0_6_29)">
<path d="M20.125 22.5H18.2083V17.8772C18.2076 17.1586 17.9088 16.4695 17.3775 15.9614C16.8462 15.4532 16.1259 15.1674 15.3745 15.1666H7.62546C6.87412 15.1674 6.15378 15.4532 5.62251 15.9614C5.09123 16.4695 4.79243 17.1586 4.79167 17.8772V22.5H2.875V17.8772C2.87652 16.6726 3.3775 15.5176 4.26806 14.6658C5.15861 13.814 6.36603 13.3348 7.62546 13.3333H15.3745C16.634 13.3348 17.8414 13.814 18.7319 14.6658C19.6225 15.5176 20.1235 16.6726 20.125 17.8772V22.5Z" fill="#9799A9"/>
<path d="M11.5 11.5C10.3628 11.5 9.25106 11.1774 8.30547 10.5731C7.35989 9.96874 6.6229 9.10976 6.1877 8.10476C5.75249 7.09977 5.63862 5.9939 5.86049 4.92701C6.08235 3.86011 6.62999 2.8801 7.43414 2.11092C8.23829 1.34173 9.26284 0.817902 10.3782 0.605683C11.4936 0.393465 12.6498 0.502383 13.7004 0.918665C14.7511 1.33495 15.6491 2.0399 16.281 2.94437C16.9128 3.84884 17.25 4.91221 17.25 6C17.2485 7.45825 16.6422 8.85635 15.5642 9.88748C14.4862 10.9186 13.0245 11.4985 11.5 11.5ZM11.5 2.33334C10.7418 2.33334 10.0007 2.54838 9.37032 2.95128C8.73993 3.35418 8.2486 3.92683 7.95846 4.59683C7.66833 5.26683 7.59242 6.00407 7.74033 6.71533C7.88824 7.4266 8.25333 8.07994 8.78943 8.59273C9.32553 9.10552 10.0086 9.45474 10.7522 9.59622C11.4958 9.73769 12.2665 9.66508 12.967 9.38756C13.6674 9.11004 14.2661 8.64007 14.6873 8.03709C15.1085 7.43411 15.3333 6.7252 15.3333 6C15.3333 5.02754 14.9295 4.09491 14.2106 3.40728C13.4917 2.71964 12.5167 2.33334 11.5 2.33334Z" fill="#9799A9"/>
</g>
<defs>
<clipPath id="clip0_6_29">
<rect width="23" height="22" fill="white" transform="translate(0 0.5)"/>
</clipPath>
</defs>
</svg>
