<svg width="23" height="23" viewBox="0 0 23 23" fill="none" xmlns="http://www.w3.org/2000/svg">
<g clip-path="url(#clip0_98_4177)">
<path d="M23 3.25H4.06525L4.025 2.92825C3.94263 2.25947 3.60658 1.64284 3.08055 1.19527C2.55453 0.747705 1.8751 0.500313 1.17108 0.5L0 0.5V2.33333H1.17108C1.40581 2.33336 1.63236 2.41579 1.80777 2.56499C1.98318 2.71419 2.09525 2.91977 2.12271 3.14275L3.64167 15.4884C3.72404 16.1572 4.06009 16.7738 4.58611 17.2214C5.11214 17.669 5.79156 17.9164 6.49558 17.9167H19.1667V16.0833H6.49558C6.26071 16.0833 6.03403 16.0007 5.8586 15.8513C5.68317 15.702 5.5712 15.4961 5.54396 15.273L5.41842 14.25H20.9262L23 3.25ZM19.3238 12.4167H5.19321L4.29142 5.08333H20.7067L19.3238 12.4167Z" fill="#5660AB"/>
<path d="M6.70866 22.5C7.7672 22.5 8.62533 21.6792 8.62533 20.6667C8.62533 19.6542 7.7672 18.8333 6.70866 18.8333C5.65011 18.8333 4.79199 19.6542 4.79199 20.6667C4.79199 21.6792 5.65011 22.5 6.70866 22.5Z" fill="#5660AB"/>
<path d="M16.2917 22.5C17.3502 22.5 18.2083 21.6792 18.2083 20.6667C18.2083 19.6542 17.3502 18.8333 16.2917 18.8333C15.2331 18.8333 14.375 19.6542 14.375 20.6667C14.375 21.6792 15.2331 22.5 16.2917 22.5Z" fill="#5660AB"/>
</g>
<defs>
<clipPath id="clip0_98_4177">
<rect width="23" height="22" fill="white" transform="translate(0 0.5)"/>
</clipPath>
</defs>
</svg>
