<svg width="29" height="29" viewBox="0 0 29 29" fill="none" xmlns="http://www.w3.org/2000/svg">
<path d="M14.8058 6.98499C10.8347 6.98499 7.60504 10.2144 7.60352 14.1837C7.60293 15.5441 7.9836 16.8689 8.70421 18.0151L8.87544 18.2875L8.14815 20.9441L10.873 20.2293L11.1358 20.3853C12.2412 21.0412 13.5082 21.3883 14.8 21.3889H14.803C18.7711 21.3889 22.0007 18.1592 22.0022 14.1895C22.003 12.2658 21.2548 10.457 19.8957 9.09619C18.5364 7.73548 16.7288 6.98557 14.8058 6.98499ZM19.0405 17.2791C18.8602 17.7846 17.9955 18.246 17.5796 18.3081C17.2067 18.3639 16.7349 18.3871 16.2165 18.2224C15.9021 18.1226 15.499 17.9894 14.9826 17.7665C12.8115 16.829 11.3936 14.643 11.2854 14.4985C11.1772 14.3541 10.4016 13.3249 10.4016 12.2596C10.4016 11.1944 10.9608 10.6707 11.1592 10.454C11.3575 10.2374 11.592 10.1832 11.7363 10.1832C11.8805 10.1832 12.025 10.1846 12.151 10.1909C12.2839 10.1976 12.4623 10.1404 12.6381 10.5624C12.8184 10.9958 13.2512 12.0611 13.3054 12.1694C13.3595 12.2777 13.3956 12.4041 13.3234 12.5486C13.2513 12.6929 13.2152 12.7833 13.107 12.9096C12.9988 13.036 12.8797 13.1918 12.7824 13.2888C12.674 13.3967 12.5612 13.5139 12.6874 13.7305C12.8137 13.9472 13.2481 14.6559 13.8915 15.2298C14.7181 15.9671 15.4155 16.1957 15.6319 16.304C15.8483 16.4124 15.9746 16.3942 16.1009 16.2499C16.2271 16.1054 16.6419 15.6179 16.7862 15.4012C16.9305 15.1846 17.0747 15.2207 17.2731 15.2929C17.4715 15.3652 18.5356 15.8887 18.752 15.997C18.9684 16.1054 19.1127 16.1596 19.1668 16.2499C19.2209 16.3401 19.2209 16.7734 19.0405 17.2791Z" fill="#5660AC"/>
<path d="M14.4863 0.0701904C6.51687 0.0701904 0.0559082 6.52998 0.0559082 14.4994C0.0559082 22.4689 6.51687 28.9299 14.4863 28.9299C22.4552 28.9299 28.9162 22.4689 28.9162 14.4994C28.9162 6.52998 22.4552 0.0701904 14.4863 0.0701904ZM14.803 22.8518C14.8027 22.8518 14.8032 22.8518 14.803 22.8518H14.7994C13.3498 22.8513 11.9253 22.4875 10.6602 21.7975L6.0684 23.002L7.29726 18.5135C6.53926 17.1999 6.14042 15.7099 6.14107 14.1832C6.14294 9.40751 10.0287 5.52205 14.803 5.52205C17.12 5.52299 19.2949 6.42503 20.9302 8.06227C22.5656 9.69946 23.4657 11.8757 23.4648 14.1902C23.4628 18.9659 19.5768 22.8518 14.803 22.8518Z" fill="#5660AC"/>
</svg>
