<svg width="33" height="33" viewBox="0 0 33 33" fill="none" xmlns="http://www.w3.org/2000/svg">
<path d="M16.5 0C7.3873 0 0 7.3873 0 16.5C0 25.6127 7.3873 33 16.5 33C25.6127 33 33 25.6127 33 16.5C33 7.3873 25.6127 0 16.5 0ZM25.289 22.101H23.1953C22.9685 22.1012 22.7446 22.0504 22.5402 21.9522C22.3358 21.854 22.1561 21.711 22.0146 21.5338C21.3867 20.7455 20.1497 19.3477 18.8509 18.7473C18.7757 18.7121 18.6928 18.6964 18.6099 18.7017C18.527 18.707 18.4468 18.7331 18.3767 18.7776C18.3066 18.8221 18.2488 18.8836 18.2087 18.9563C18.1686 19.0291 18.1475 19.1108 18.1474 19.1938V21.2646C18.1474 21.3744 18.1258 21.4832 18.0838 21.5846C18.0417 21.6861 17.9802 21.7783 17.9025 21.856C17.8249 21.9337 17.7327 21.9953 17.6312 22.0373C17.5297 22.0793 17.421 22.101 17.3111 22.101H16.343C15.084 22.101 12.3727 21.3346 10.2123 18.1874C8.37149 15.5062 7.55094 13.4282 7.07244 11.7434C7.04462 11.6447 7.04007 11.5408 7.05913 11.44C7.0782 11.3392 7.12037 11.2442 7.18233 11.1624C7.24429 11.0807 7.32436 11.0144 7.41625 10.9688C7.50814 10.9232 7.60936 10.8995 7.71195 10.8995H9.83C10.0413 10.8994 10.247 10.9674 10.4166 11.0935C10.5861 11.2196 10.7104 11.3971 10.771 11.5996C11.1649 12.9169 12.1851 15.7587 13.9883 17.1739C14.0433 17.2172 14.1094 17.2442 14.179 17.2517C14.2486 17.2593 14.3189 17.2471 14.3819 17.2166C14.4449 17.1861 14.4981 17.1384 14.5353 17.0791C14.5725 17.0198 14.5922 16.9513 14.5923 16.8812V13.5641C14.5923 12.9085 14.3082 12.2527 13.8648 11.7401C13.8009 11.6666 13.7595 11.5762 13.7455 11.4798C13.7315 11.3834 13.7456 11.285 13.786 11.1964C13.8264 11.1078 13.8914 11.0326 13.9733 10.9799C14.0553 10.9272 14.1506 10.8992 14.248 10.8992H17.5136C17.6818 10.8992 17.843 10.966 17.9619 11.0849C18.0808 11.2038 18.1477 11.3651 18.1477 11.5332V16.0015C18.1477 16.0661 18.1655 16.1296 18.1992 16.1848C18.2328 16.24 18.281 16.2849 18.3385 16.3146C18.396 16.3443 18.4605 16.3575 18.525 16.353C18.5896 16.3484 18.6516 16.3261 18.7043 16.2887C19.3037 15.862 19.8171 15.2316 20.2893 14.5231C20.8835 13.6318 21.6087 12.1586 21.9725 11.394C22.0429 11.2458 22.1539 11.1207 22.2925 11.0331C22.4312 10.9455 22.5918 10.899 22.7558 10.899H25.0658C25.1623 10.899 25.2572 10.9236 25.3414 10.9705C25.4257 11.0174 25.4967 11.085 25.5475 11.167C25.5983 11.249 25.6273 11.3426 25.6319 11.4389C25.6364 11.5353 25.6162 11.6312 25.5733 11.7176C24.9903 12.8868 23.855 15.0316 22.7866 16.29C22.6337 16.471 22.5588 16.7052 22.5784 16.9414C22.598 17.1775 22.7105 17.3962 22.8912 17.5494C23.5877 18.1445 24.6748 19.2445 25.847 21.0769C25.9117 21.1772 25.9481 21.293 25.9525 21.4123C25.9569 21.5315 25.9291 21.6498 25.872 21.7546C25.8149 21.8593 25.7306 21.9468 25.6281 22.0078C25.5255 22.0687 25.4084 22.1009 25.289 22.101Z" fill="#BEBEBE"/>
</svg>
