<svg width="34" height="33" viewBox="0 0 34 33" fill="none" xmlns="http://www.w3.org/2000/svg">
<path d="M17 0C7.61113 0 0 7.38728 0 16.5C0 25.6127 7.61113 33 17 33C26.3889 33 34 25.6127 34 16.5C34 7.38728 26.3889 0 17 0ZM24.8798 11.2213C24.6239 13.8304 23.517 20.1618 22.9536 23.084C22.7153 24.3205 22.246 24.7351 21.7918 24.7756C20.8047 24.8638 20.0549 24.1424 19.0987 23.5341C17.6025 22.5821 16.7573 21.9895 15.3049 21.0606C13.6265 19.9871 14.7145 19.3973 15.6711 18.4326C15.9214 18.1802 20.2711 14.3402 20.3553 13.9918C20.3658 13.9482 20.3759 13.7856 20.2762 13.7001C20.1765 13.6147 20.0301 13.6436 19.9242 13.6669C19.7742 13.6999 17.3839 15.2333 12.7535 18.267C12.0751 18.7192 11.4606 18.9395 10.91 18.928C10.303 18.9153 9.13538 18.5949 8.26735 18.321C7.20272 17.9851 6.35656 17.8076 6.43025 17.2371C6.46864 16.9399 6.89021 16.6361 7.69497 16.3256C12.6508 14.2299 15.9555 12.8483 17.609 12.1807C22.33 10.2747 23.311 9.94364 23.9505 9.9326C24.0911 9.93034 24.4056 9.96414 24.6092 10.1245C24.7447 10.2388 24.831 10.3983 24.8512 10.5714C24.8857 10.7863 24.8953 11.0043 24.8798 11.2213Z" fill="#BEBEBE"/>
</svg>
