<svg width="30" height="30" viewBox="0 0 30 30" fill="none" xmlns="http://www.w3.org/2000/svg">
<path d="M15.3033 7.00977C11.2778 7.00977 8.00386 10.2834 8.00232 14.3071C8.00173 15.6861 8.38761 17.029 9.11809 18.1909L9.29167 18.4671L8.55441 21.16L11.3165 20.4355L11.583 20.5936C12.7035 21.2585 13.9879 21.6104 15.2974 21.6109H15.3004C19.3229 21.6109 22.5966 18.337 22.5982 14.3129C22.599 12.363 21.8406 10.5293 20.4628 9.14989C19.085 7.77054 17.2525 7.01036 15.3033 7.00977ZM19.5959 17.4448C19.4132 17.9573 18.5366 18.425 18.1151 18.488C17.737 18.5445 17.2588 18.568 16.7332 18.4011C16.4146 18.3 16.006 18.1649 15.4825 17.9389C13.2817 16.9886 11.8443 14.7726 11.7346 14.6262C11.625 14.4798 10.8388 13.4365 10.8388 12.3566C10.8388 11.2768 11.4056 10.746 11.6067 10.5263C11.8077 10.3068 12.0454 10.2518 12.1917 10.2518C12.3379 10.2518 12.4844 10.2532 12.6121 10.2595C12.7468 10.2664 12.9277 10.2084 13.1058 10.6362C13.2886 11.0755 13.7274 12.1554 13.7823 12.2652C13.8371 12.375 13.8737 12.5031 13.8006 12.6496C13.7274 12.7959 13.6909 12.8875 13.5812 13.0156C13.4715 13.1437 13.3508 13.3016 13.2521 13.3999C13.1422 13.5093 13.0279 13.6281 13.1559 13.8476C13.2839 14.0673 13.7242 14.7857 14.3764 15.3675C15.2144 16.1149 15.9213 16.3466 16.1407 16.4564C16.3601 16.5663 16.4881 16.5479 16.616 16.4015C16.744 16.2551 17.1645 15.7609 17.3108 15.5413C17.457 15.3217 17.6033 15.3583 17.8043 15.4315C18.0054 15.5048 19.0841 16.0354 19.3035 16.1452C19.5229 16.2551 19.6691 16.31 19.724 16.4015C19.7788 16.493 19.7788 16.9322 19.5959 17.4448Z" fill="white"/>
<path d="M14.9794 0C6.90077 0 0.351318 6.54826 0.351318 14.6269C0.351318 22.7055 6.90077 29.2549 14.9794 29.2549C23.0574 29.2549 29.6068 22.7055 29.6068 14.6269C29.6068 6.54826 23.0574 0 14.9794 0ZM15.3004 23.0936C15.3001 23.0936 15.3006 23.0936 15.3004 23.0936H15.2968C13.8272 23.0931 12.3832 22.7244 11.1008 22.0249L6.44615 23.2459L7.69184 18.6959C6.92346 17.3643 6.51916 15.8539 6.51981 14.3063C6.52171 9.4652 10.4607 5.52652 15.3003 5.52652C17.6491 5.52747 19.8538 6.44187 21.5115 8.10154C23.1692 9.76115 24.0817 11.9671 24.0808 14.3133C24.0788 19.1545 20.1396 23.0936 15.3004 23.0936Z" fill="white"/>
</svg>
