<svg width="33" height="33" viewBox="0 0 33 33" fill="none" xmlns="http://www.w3.org/2000/svg">
<path d="M16.5195 8.0835C12.072 8.0835 8.45483 11.7003 8.45313 16.1459C8.45247 17.6694 8.87881 19.1532 9.68587 20.4369L9.87765 20.742L9.0631 23.7173L12.1148 22.9168L12.4092 23.0915C13.6472 23.8261 15.0662 24.2148 16.513 24.2154H16.5163C20.9605 24.2154 24.5775 20.5983 24.5793 16.1523C24.5801 13.9979 23.7422 11.9721 22.22 10.448C20.6977 8.92403 18.6731 8.08415 16.5195 8.0835ZM21.2622 19.6126C21.0603 20.1787 20.0918 20.6955 19.6261 20.7651C19.2084 20.8275 18.68 20.8535 18.0994 20.669C17.7473 20.5573 17.2959 20.4082 16.7175 20.1584C14.286 19.1085 12.6979 16.6602 12.5767 16.4984C12.4556 16.3367 11.5869 15.1841 11.5869 13.9909C11.5869 12.7979 12.2132 12.2114 12.4354 11.9687C12.6575 11.7262 12.9201 11.6654 13.0817 11.6654C13.2433 11.6654 13.4051 11.667 13.5462 11.674C13.695 11.6815 13.8949 11.6175 14.0917 12.0901C14.2936 12.5755 14.7784 13.7686 14.839 13.8899C14.8997 14.0112 14.94 14.1528 14.8592 14.3146C14.7785 14.4762 14.7381 14.5774 14.6169 14.7189C14.4957 14.8605 14.3623 15.0349 14.2533 15.1436C14.1319 15.2645 14.0056 15.3956 14.1469 15.6382C14.2884 15.881 14.7748 16.6747 15.4955 17.3175C16.4213 18.1432 17.2023 18.3992 17.4447 18.5205C17.6871 18.642 17.8285 18.6215 17.9699 18.4599C18.1113 18.2981 18.5759 17.7521 18.7374 17.5094C18.899 17.2669 19.0606 17.3073 19.2828 17.3881C19.5049 17.4691 20.6967 18.0554 20.9391 18.1767C21.1815 18.2981 21.3431 18.3588 21.4036 18.4599C21.4642 18.5609 21.4642 19.0462 21.2622 19.6126Z" fill="#BEBEBE"/>
<path d="M16.1616 0.338867C7.23609 0.338867 0 7.57364 0 16.4992C0 25.4248 7.23609 32.6609 16.1616 32.6609C25.0866 32.6609 32.3226 25.4248 32.3226 16.4992C32.3226 7.57364 25.0866 0.338867 16.1616 0.338867ZM16.5163 25.8536C16.516 25.8536 16.5165 25.8536 16.5163 25.8536H16.5123C14.8887 25.853 13.2933 25.4456 11.8765 24.6728L6.73381 26.0218L8.1101 20.9949C7.26116 19.5237 6.81447 17.8549 6.8152 16.1451C6.8173 10.7964 11.1692 6.44479 16.5163 6.44479C19.1113 6.44584 21.5471 7.4561 23.3786 9.28976C25.2101 11.1234 26.2183 13.5606 26.2173 16.1528C26.215 21.5015 21.8628 25.8536 16.5163 25.8536Z" fill="#BEBEBE"/>
</svg>
