<svg width="31" height="29" viewBox="0 0 31 29" fill="none" xmlns="http://www.w3.org/2000/svg">
<path d="M15.0547 0C6.77039 0 0.0546875 6.49185 0.0546875 14.5C0.0546875 22.5082 6.77039 29 15.0547 29C23.339 29 30.0547 22.5082 30.0547 14.5C30.0547 6.49185 23.339 0 15.0547 0ZM22.0074 9.86117C21.7817 12.154 20.8049 17.7179 20.3078 20.286C20.0976 21.3725 19.6835 21.7369 19.2828 21.7725C18.4118 21.85 17.7502 21.2161 16.9065 20.6814C15.5863 19.8449 14.8405 19.3241 13.559 18.5078C12.078 17.5644 13.0381 17.0461 13.8821 16.1983C14.103 15.9765 17.941 12.602 18.0153 12.2958C18.0245 12.2575 18.0334 12.1146 17.9455 12.0395C17.8575 11.9644 17.7283 11.9899 17.6349 12.0103C17.5025 12.0393 15.3935 13.3869 11.3078 16.0528C10.7092 16.4502 10.167 16.6438 9.68112 16.6337C9.14553 16.6225 8.11531 16.341 7.34941 16.1003C6.41003 15.8051 5.66342 15.6491 5.72844 15.1478C5.76231 14.8866 6.13428 14.6196 6.84436 14.3468C11.2172 12.5051 14.1331 11.2909 15.592 10.7042C19.7577 9.02929 20.6233 8.73835 21.1874 8.72865C21.3116 8.72666 21.589 8.75636 21.7687 8.89733C21.8882 8.99775 21.9644 9.13788 21.9822 9.29C22.0127 9.47888 22.0211 9.67047 22.0074 9.86117Z" fill="#5660AC"/>
</svg>
