<svg width="30" height="29" viewBox="0 0 30 29" fill="none" xmlns="http://www.w3.org/2000/svg">
<path d="M14.5547 0C6.54655 0 0.0546875 6.49187 0.0546875 14.5C0.0546875 22.5081 6.54655 29 14.5547 29C22.5628 29 29.0547 22.5081 29.0547 14.5C29.0547 6.49187 22.5628 0 14.5547 0ZM22.2784 19.4221H20.4384C20.2391 19.4223 20.0424 19.3776 19.8627 19.2913C19.6831 19.205 19.5252 19.0793 19.4009 18.9236C18.8491 18.2309 17.762 17.0025 16.6207 16.4749C16.5545 16.4439 16.4817 16.4302 16.4089 16.4348C16.336 16.4395 16.2655 16.4624 16.2039 16.5015C16.1423 16.5407 16.0915 16.5947 16.0563 16.6586C16.021 16.7225 16.0025 16.7943 16.0024 16.8673V18.687C16.0024 18.7836 15.9834 18.8791 15.9465 18.9683C15.9096 19.0575 15.8554 19.1385 15.7872 19.2068C15.719 19.275 15.6379 19.3292 15.5488 19.3661C15.4596 19.4031 15.364 19.4221 15.2675 19.4221H14.4167C13.3103 19.4221 10.9276 18.7486 9.02911 15.9829C7.41146 13.6267 6.69036 11.8006 6.26986 10.32C6.24542 10.2332 6.24141 10.1419 6.25817 10.0534C6.27492 9.96477 6.31198 9.88128 6.36643 9.80942C6.42088 9.73757 6.49125 9.67931 6.572 9.63923C6.65275 9.59914 6.7417 9.57831 6.83185 9.57838H8.69318C8.87888 9.57822 9.05967 9.63801 9.20866 9.74885C9.35765 9.85968 9.46689 10.0157 9.52013 10.1936C9.86626 11.3512 10.7628 13.8486 12.3475 15.0922C12.3958 15.1303 12.4538 15.154 12.515 15.1606C12.5762 15.1673 12.638 15.1566 12.6933 15.1297C12.7487 15.1029 12.7954 15.0611 12.8281 15.0089C12.8608 14.9568 12.8782 14.8966 12.8782 14.835V11.92C12.8782 11.3439 12.6286 10.7675 12.2389 10.317C12.1827 10.2524 12.1463 10.173 12.1341 10.0883C12.1218 10.0036 12.1341 9.91715 12.1696 9.83926C12.2051 9.76137 12.2623 9.69533 12.3343 9.64903C12.4063 9.60272 12.4901 9.5781 12.5757 9.5781H15.4454C15.5932 9.5781 15.7349 9.6368 15.8394 9.74129C15.9439 9.84578 16.0026 9.9875 16.0026 10.1353V14.0619C16.0027 14.1187 16.0183 14.1745 16.0479 14.223C16.0775 14.2715 16.1198 14.311 16.1703 14.3371C16.2209 14.3631 16.2776 14.3748 16.3343 14.3708C16.391 14.3668 16.4455 14.3472 16.4918 14.3143C17.0186 13.9393 17.4697 13.3854 17.8846 12.7627C18.4069 11.9795 19.0441 10.6848 19.3638 10.0129C19.4257 9.88271 19.5232 9.77275 19.6451 9.69577C19.7669 9.61878 19.9081 9.57792 20.0522 9.57793H22.0822C22.167 9.57789 22.2504 9.59951 22.3244 9.64072C22.3985 9.68193 22.4608 9.74138 22.5055 9.81342C22.5502 9.88547 22.5757 9.96773 22.5797 10.0524C22.5836 10.1371 22.5659 10.2214 22.5282 10.2973C22.0159 11.3247 21.0182 13.2096 20.0793 14.3155C19.9449 14.4745 19.8791 14.6804 19.8963 14.8879C19.9136 15.0954 20.0124 15.2875 20.1712 15.4222C20.7832 15.9451 21.7386 16.9119 22.7687 18.5221C22.8255 18.6102 22.8576 18.7121 22.8614 18.8169C22.8653 18.9217 22.8409 19.0256 22.7907 19.1176C22.7405 19.2097 22.6665 19.2866 22.5763 19.3402C22.4862 19.3937 22.3832 19.422 22.2784 19.4221Z" fill="#5660AC"/>
</svg>
