<svg width="31" height="30" viewBox="0 0 31 30" fill="none" xmlns="http://www.w3.org/2000/svg">
<path d="M15.3513 0.127441C7.06704 0.127441 0.351318 6.61931 0.351318 14.6274C0.351318 22.6356 7.06704 29.1274 15.3513 29.1274C23.6356 29.1274 30.3513 22.6356 30.3513 14.6274C30.3513 6.61931 23.6356 0.127441 15.3513 0.127441ZM23.3413 19.5495H21.4379C21.2318 19.5497 21.0282 19.505 20.8424 19.4187C20.6566 19.3325 20.4933 19.2068 20.3646 19.0511C19.7938 18.3583 18.6692 17.1299 17.4885 16.6023C17.4201 16.5714 17.3448 16.5576 17.2694 16.5623C17.1941 16.5669 17.1212 16.5899 17.0574 16.629C16.9936 16.6681 16.9411 16.7221 16.9047 16.786C16.8682 16.85 16.8491 16.9217 16.8489 16.9947V18.8145C16.8489 18.911 16.8293 19.0066 16.7911 19.0958C16.7529 19.1849 16.6969 19.266 16.6263 19.3342C16.5557 19.4025 16.4719 19.4566 16.3797 19.4936C16.2874 19.5305 16.1886 19.5495 16.0887 19.5495H15.2086C14.064 19.5495 11.5992 18.876 9.63521 16.1103C7.96177 13.7541 7.21581 11.928 6.78081 10.4474C6.75552 10.3606 6.75138 10.2694 6.76871 10.1808C6.78605 10.0922 6.82438 10.0087 6.88071 9.93686C6.93704 9.86501 7.00983 9.80675 7.09337 9.76667C7.1769 9.72658 7.26891 9.70576 7.36218 9.70582H9.28769C9.47979 9.70566 9.66681 9.76545 9.82094 9.87629C9.97508 9.98712 10.0881 10.1431 10.1432 10.321C10.5012 11.4787 11.4286 13.976 13.068 15.2196C13.118 15.2577 13.178 15.2814 13.2413 15.2881C13.3046 15.2947 13.3685 15.284 13.4258 15.2572C13.4831 15.2304 13.5314 15.1885 13.5652 15.1364C13.599 15.0843 13.617 15.024 13.6171 14.9625V12.0474C13.6171 11.4713 13.3588 10.8949 12.9557 10.4445C12.8976 10.3799 12.8599 10.3005 12.8472 10.2158C12.8345 10.131 12.8473 10.0446 12.884 9.9667C12.9207 9.88881 12.9799 9.82277 13.0543 9.77647C13.1288 9.73016 13.2155 9.70554 13.3041 9.70554H16.2728C16.4256 9.70554 16.5722 9.76424 16.6804 9.86873C16.7885 9.97322 16.8492 10.1149 16.8492 10.2627V14.1893C16.8492 14.2462 16.8654 14.3019 16.896 14.3504C16.9266 14.399 16.9704 14.4385 17.0227 14.4645C17.0749 14.4906 17.1336 14.5022 17.1923 14.4982C17.2509 14.4942 17.3073 14.4746 17.3552 14.4417C17.9001 14.0668 18.3668 13.5128 18.7961 12.8902C19.3363 12.1069 19.9956 10.8122 20.3263 10.1403C20.3903 10.0101 20.4912 9.90019 20.6172 9.82321C20.7433 9.74622 20.8893 9.70537 21.0384 9.70537H23.1384C23.2261 9.70534 23.3124 9.72695 23.389 9.76816C23.4656 9.80937 23.5301 9.86882 23.5763 9.94086C23.6225 10.0129 23.6489 10.0952 23.653 10.1798C23.6571 10.2645 23.6388 10.3488 23.5997 10.4247C23.0698 11.4522 22.0377 13.3371 21.0664 14.4429C20.9274 14.6019 20.8593 14.8078 20.8772 15.0153C20.895 15.2228 20.9973 15.415 21.1615 15.5497C21.7946 16.0726 22.783 17.0393 23.8486 18.6495C23.9074 18.7377 23.9405 18.8395 23.9445 18.9443C23.9485 19.0491 23.9232 19.153 23.8713 19.2451C23.8194 19.3372 23.7428 19.414 23.6496 19.4676C23.5563 19.5212 23.4498 19.5495 23.3413 19.5495Z" fill="white"/>
</svg>
