<svg width="32" height="30" viewBox="0 0 32 30" fill="none" xmlns="http://www.w3.org/2000/svg">
<path d="M15.8513 0.127441C7.29088 0.127441 0.351318 6.61929 0.351318 14.6274C0.351318 22.6356 7.29088 29.1274 15.8513 29.1274C24.4118 29.1274 31.3513 22.6356 31.3513 14.6274C31.3513 6.61929 24.4118 0.127441 15.8513 0.127441ZM23.0358 9.98861C22.8026 12.2814 21.7933 17.8454 21.2796 20.4134C21.0623 21.5 20.6344 21.8643 20.2203 21.9C19.3203 21.9775 18.6367 21.3435 17.7649 20.8089C16.4007 19.9723 15.63 19.4516 14.3058 18.6352C12.7754 17.6919 13.7675 17.1735 14.6396 16.3258C14.8679 16.104 18.8338 12.7294 18.9106 12.4233C18.9201 12.385 18.9293 12.242 18.8384 12.1669C18.7476 12.0919 18.6141 12.1173 18.5175 12.1377C18.3807 12.1668 16.2014 13.5143 11.9795 16.1803C11.361 16.5776 10.8007 16.7712 10.2986 16.7611C9.74519 16.7499 8.68063 16.4684 7.88919 16.2277C6.91851 15.9326 6.14701 15.7765 6.21419 15.2752C6.24919 15.0141 6.63357 14.747 7.36732 14.4742C11.8859 12.6325 14.899 11.4184 16.4066 10.8317C20.7111 9.15673 21.6055 8.8658 22.1885 8.85609C22.3168 8.8541 22.6034 8.88381 22.7891 9.02477C22.9127 9.12519 22.9914 9.26532 23.0098 9.41744C23.0412 9.60632 23.05 9.79791 23.0358 9.98861Z" fill="white"/>
</svg>
