<svg width="31" height="29" viewBox="0 0 31 29" fill="none" xmlns="http://www.w3.org/2000/svg">
<path d="M15.0559 0C6.77161 0 0.0559082 6.49185 0.0559082 14.5C0.0559082 22.5082 6.77161 29 15.0559 29C23.3402 29 30.0559 22.5082 30.0559 14.5C30.0559 6.49185 23.3402 0 15.0559 0ZM22.0086 9.86117C21.7829 12.154 20.8062 17.7179 20.3091 20.286C20.0988 21.3725 19.6847 21.7369 19.284 21.7725C18.413 21.85 17.7514 21.2161 16.9077 20.6814C15.5876 19.8449 14.8417 19.3241 13.5602 18.5078C12.0793 17.5644 13.0393 17.0461 13.8833 16.1983C14.1042 15.9765 17.9422 12.602 18.0165 12.2958C18.0257 12.2575 18.0346 12.1146 17.9467 12.0395C17.8587 11.9644 17.7295 11.9899 17.6361 12.0103C17.5037 12.0393 15.3947 13.3869 11.309 16.0528C10.7104 16.4502 10.1682 16.6438 9.68234 16.6337C9.14676 16.6225 8.11653 16.341 7.35063 16.1003C6.41125 15.8051 5.66464 15.6491 5.72966 15.1478C5.76353 14.8866 6.1355 14.6196 6.84559 14.3468C11.2184 12.5051 14.1343 11.2909 15.5932 10.7042C19.7589 9.02929 20.6245 8.73835 21.1887 8.72865C21.3128 8.72666 21.5902 8.75636 21.7699 8.89733C21.8895 8.99775 21.9657 9.13788 21.9834 9.29C22.0139 9.47888 22.0223 9.67047 22.0086 9.86117Z" fill="#5660AC"/>
</svg>
