<svg width="15" height="16" viewBox="0 0 15 16" fill="none" xmlns="http://www.w3.org/2000/svg">
<g clip-path="url(#clip0_184_5458)">
<path d="M7.5 0.5C5.65344 0.501316 3.87258 1.18539 2.5 2.42062V1.125C2.5 0.95924 2.43415 0.800269 2.31694 0.683058C2.19973 0.565848 2.04076 0.5 1.875 0.5C1.70924 0.5 1.55027 0.565848 1.43306 0.683058C1.31585 0.800269 1.25 0.95924 1.25 1.125V3C1.25 3.49728 1.44754 3.97419 1.79917 4.32583C2.15081 4.67746 2.62772 4.875 3.125 4.875H5C5.16576 4.875 5.32473 4.80915 5.44194 4.69194C5.55915 4.57473 5.625 4.41576 5.625 4.25C5.625 4.08424 5.55915 3.92527 5.44194 3.80806C5.32473 3.69085 5.16576 3.625 5 3.625H3.125C3.10392 3.62188 3.08305 3.61749 3.0625 3.61188C4.08095 2.58614 5.42383 1.94567 6.86192 1.79979C8.3 1.65391 9.74414 2.01166 10.9478 2.81198C12.1515 3.61229 13.0401 4.80556 13.462 6.18809C13.8839 7.57063 13.8128 9.05672 13.261 10.3927C12.7092 11.7287 11.7108 12.8318 10.4362 13.5136C9.16168 14.1954 7.69 14.4138 6.27238 14.1314C4.85477 13.849 3.57912 13.0833 2.66316 11.9651C1.7472 10.8469 1.24773 9.44546 1.25 8C1.25 7.83424 1.18415 7.67527 1.06694 7.55806C0.949732 7.44085 0.79076 7.375 0.625 7.375C0.45924 7.375 0.300269 7.44085 0.183058 7.55806C0.065848 7.67527 0 7.83424 0 8C0 9.48336 0.439867 10.9334 1.26398 12.1668C2.08809 13.4001 3.25943 14.3614 4.62987 14.9291C6.00032 15.4968 7.50832 15.6453 8.96318 15.3559C10.418 15.0665 11.7544 14.3522 12.8033 13.3033C13.8522 12.2544 14.5665 10.918 14.8559 9.46318C15.1453 8.00832 14.9968 6.50032 14.4291 5.12987C13.8614 3.75943 12.9001 2.58809 11.6668 1.76398C10.4334 0.939867 8.98336 0.5 7.5 0.5Z" fill="#242848" fill-opacity="0.5"/>
<path d="M7.5 4.25C7.33424 4.25 7.17527 4.31585 7.05806 4.43306C6.94085 4.55027 6.875 4.70924 6.875 4.875V8C6.87504 8.16575 6.94091 8.32469 7.05813 8.44187L8.93313 10.3169C9.051 10.4307 9.20888 10.4937 9.37275 10.4923C9.53662 10.4909 9.69338 10.4251 9.80926 10.3093C9.92514 10.1934 9.99087 10.0366 9.9923 9.87275C9.99372 9.70888 9.93072 9.551 9.81688 9.43313L8.125 7.74125V4.875C8.125 4.70924 8.05915 4.55027 7.94194 4.43306C7.82473 4.31585 7.66576 4.25 7.5 4.25Z" fill="#242848" fill-opacity="0.5"/>
</g>
<defs>
<clipPath id="clip0_184_5458">
<rect width="15" height="15" fill="white" transform="translate(0 0.5)"/>
</clipPath>
</defs>
</svg>
