<svg width="11" height="11" viewBox="0 0 11 11" fill="none" xmlns="http://www.w3.org/2000/svg">
<g clip-path="url(#clip0_289_10732)">
<path d="M9.6263 1.83333H8.20547C8.09909 1.31606 7.81764 0.851284 7.40854 0.517329C6.99945 0.183375 6.48773 0.000666657 5.95964 0L5.04297 0C4.51487 0.000666657 4.00316 0.183375 3.59406 0.517329C3.18497 0.851284 2.90351 1.31606 2.79714 1.83333H1.3763C1.25474 1.83333 1.13817 1.88162 1.05221 1.96758C0.966257 2.05353 0.917969 2.17011 0.917969 2.29167C0.917969 2.41322 0.966257 2.5298 1.05221 2.61576C1.13817 2.70171 1.25474 2.75 1.3763 2.75H1.83464V8.70833C1.83536 9.3159 2.07704 9.89837 2.50665 10.328C2.93627 10.7576 3.51874 10.9993 4.1263 11H6.8763C7.48387 10.9993 8.06634 10.7576 8.49595 10.328C8.92556 9.89837 9.16724 9.3159 9.16797 8.70833V2.75H9.6263C9.74786 2.75 9.86444 2.70171 9.95039 2.61576C10.0363 2.5298 10.0846 2.41322 10.0846 2.29167C10.0846 2.17011 10.0363 2.05353 9.95039 1.96758C9.86444 1.88162 9.74786 1.83333 9.6263 1.83333ZM5.04297 0.916667H5.95964C6.24393 0.917014 6.52115 1.0053 6.75329 1.16941C6.98543 1.33353 7.16112 1.56543 7.25626 1.83333H3.74634C3.84149 1.56543 4.01717 1.33353 4.24931 1.16941C4.48145 1.0053 4.75868 0.917014 5.04297 0.916667ZM8.2513 8.70833C8.2513 9.07301 8.10644 9.42274 7.84857 9.68061C7.59071 9.93847 7.24097 10.0833 6.8763 10.0833H4.1263C3.76163 10.0833 3.41189 9.93847 3.15403 9.68061C2.89617 9.42274 2.7513 9.07301 2.7513 8.70833V2.75H8.2513V8.70833Z" fill="#FF1616"/>
<path d="M4.58333 8.25001C4.70489 8.25001 4.82147 8.20172 4.90742 8.11577C4.99338 8.02981 5.04167 7.91323 5.04167 7.79168V5.04168C5.04167 4.92012 4.99338 4.80354 4.90742 4.71759C4.82147 4.63163 4.70489 4.58334 4.58333 4.58334C4.46178 4.58334 4.3452 4.63163 4.25924 4.71759C4.17329 4.80354 4.125 4.92012 4.125 5.04168V7.79168C4.125 7.91323 4.17329 8.02981 4.25924 8.11577C4.3452 8.20172 4.46178 8.25001 4.58333 8.25001Z" fill="#FF1616"/>
<path d="M6.41536 8.25001C6.53692 8.25001 6.6535 8.20172 6.73946 8.11577C6.82541 8.02981 6.8737 7.91323 6.8737 7.79168V5.04168C6.8737 4.92012 6.82541 4.80354 6.73946 4.71759C6.6535 4.63163 6.53692 4.58334 6.41536 4.58334C6.29381 4.58334 6.17723 4.63163 6.09127 4.71759C6.00532 4.80354 5.95703 4.92012 5.95703 5.04168V7.79168C5.95703 7.91323 6.00532 8.02981 6.09127 8.11577C6.17723 8.20172 6.29381 8.25001 6.41536 8.25001Z" fill="#FF1616"/>
</g>
<defs>
<clipPath id="clip0_289_10732">
<rect width="11" height="11" fill="white"/>
</clipPath>
</defs>
</svg>
