<svg width="31" height="31" viewBox="0 0 31 31" fill="none" xmlns="http://www.w3.org/2000/svg">
<path d="M27.2928 5.90634C27.6834 5.51583 27.6834 4.88263 27.2929 4.49209L26.5079 3.70714C26.1174 3.3166 25.4842 3.31662 25.0937 3.70718L16.2071 12.5946C15.8166 12.9852 15.1834 12.9852 14.7929 12.5946L5.90634 3.70718C5.51583 3.31662 4.88263 3.3166 4.49209 3.70714L3.70714 4.49209C3.3166 4.88263 3.31662 5.51583 3.70718 5.90634L12.5946 14.7929C12.9852 15.1834 12.9852 15.8166 12.5946 16.2071L3.70718 25.0937C3.31662 25.4842 3.3166 26.1174 3.70714 26.5079L4.49209 27.2929C4.88263 27.6834 5.51583 27.6834 5.90634 27.2928L14.7929 18.4054C15.1834 18.0148 15.8166 18.0148 16.2071 18.4054L25.0937 27.2928C25.4842 27.6834 26.1174 27.6834 26.5079 27.2929L27.2929 26.5079C27.6834 26.1174 27.6834 25.4842 27.2928 25.0937L18.4054 16.2071C18.0148 15.8166 18.0148 15.1834 18.4054 14.7929L27.2928 5.90634Z" fill="white"/>
</svg>
